<svg xmlns="http://www.w3.org/2000/svg" viewBox="0 0 442.58 442.65"><g id="图层_2" data-name="图层 2"><g id="图层_1-2" data-name="图层 1"><path d="M222.44,442.58c-39.16,0-78.32-.06-117.48,0-18.24,0-36.11-2.38-52.33-10.91-29.77-15.64-47-40.49-51.52-74A141.27,141.27,0,0,1,0,338.8Q0,219.57.05,100.33c0-21,4.57-41,16.79-58.17C33.41,18.91,56,4.57,84.94,1.19,96.23-.13,107.55,0,118.87,0c74.82,0,149.65-.16,224.47.19,23.17.11,44.84,6.12,63.16,21.25q30.3,25,34.94,64.11c1.09,9.13,1.11,18.27,1.11,27.43,0,76.66.13,153.32-.14,230-.08,24.69-7.12,47.12-23.71,66.24-18.65,21.5-42.56,32.25-70.28,32.91-42,1-84,.26-126,.26Zm79-184.89h0c0,3,0,6,0,9,.28,16.83-2.6,14.17,15,14.59,4.47.1,5.75-1.65,5.68-5.89-.19-12,0-24-.1-36,0-3.86,1.46-5.39,5.3-5.33,9.49.14,19-.05,28.48.09,5.17.09,8.05,2.85,8.32,8,.27,5,.11,10,.07,15,0,4.21-2.28,6.53-6.39,6.82-3.49.25-7,.23-10.48.25-2.86,0-3.85,1-2.94,4,3.66,12.08,4.85,13.05,17.26,12.89,1,0,2,0,3-.08,13.19-1,20.23-8.56,20.28-21.75q0-10.74,0-21.48c-.05-15.68-5.91-22.38-21.62-24.36-3.17-.4-4.39-1.73-4.33-4.77.07-3.83.12-7.67-.06-11.49-.81-16.66-9.33-24.82-26-25-2.33,0-4.67,0-7-.11-2.07-.09-3.75-1.07-3.69-3.26.13-5-2.8-5.7-6.8-5.48-3,.16-6,.08-9,0s-5.25.7-5,4.47c.24,3-1.55,4.2-4.28,4.31-2,.07-4,.16-6,.05-3.36-.18-4.94,1.17-4.79,4.66s.15,7,0,10.49c-.15,3.32,1.05,5.09,4.57,4.82,11-.83,11.3.82,11.13,12.08,0,1.49-.08,3-.2,4.48-.26,3.19-1.92,4.74-5.23,4.65-4.16-.1-8.32.07-12.48,0-3.29-.05-5,1.3-4.91,4.73.09,3.66.12,7.33,0,11s1.58,5.09,5.13,5c4-.11,8,.11,12,0,3.65-.12,5.08,1.53,5,5.1C301.36,245.37,301.45,251.53,301.45,257.69Zm-58.51,23.48c10.16,0,20.32-.13,30.47.06,4.38.08,6-1.68,5.79-5.93-.21-3.48-.09-7-.07-10.48,0-2.87-1.31-4.33-4.23-4.32-3.16,0-6.33,0-9.49,0-7.21,0-7.36-.15-7.37-7.18q0-26.47,0-52.95c0-7.83,0-8,7.94-8,3.79,0,5.56-1.28,5.35-5.23-.19-3.65-.15-7.33,0-11,.12-3.09-1.2-4-4.18-3.93-10.82.16-21.65,0-32.47.09-14,.12-12.08-1.76-12.21,12.21-.07,7.66,0,7.88,7.6,7.7,4.64-.11,6.45,1.36,6.48,6.25.11,19-.73,38,.46,56.92.22,3.56-1.54,5.19-5.11,5.11s-7.33.13-11,0a5.81,5.81,0,0,0-6.21,3.92c-1.69,4-3.41,8-5.4,11.81s-.93,5.09,3.16,5C222.63,281.1,232.79,281.17,242.94,281.17Zm-126.86-64.1h0c0-15,.06-29.95,0-44.93,0-6.07-.94-6.82-7-6.88-2.66,0-5.33.11-8,0-3.77-.17-5.59,1.5-5.51,5.29,0,2,0,4,0,6q0,39.93-.07,79.87c0,4.14-.36,7.66-5.84,7.94-8.14.42-8.15.57-5,8,.77,1.84,1.64,3.64,2.51,5.43a5.8,5.8,0,0,0,2.64,2.89c8.33,4,21.86-1.82,24.89-10.79a31.59,31.59,0,0,0,1.55-10.32C116.05,245.36,116.08,231.22,116.08,217.07Zm74.53,33.11v0h10c1.93,0,3.66-.39,4.55-2.38,1.65-3.64,3.35-7.26,4.94-10.92,1-2.41-.07-3.43-2.48-3.44-1.16,0-2.33,0-3.49,0-6.11-.13-7-1.29-4.57-6.86q6-13.75,12.23-27.36c1.56-3.38,1-5.05-3-5-3,.06-6,.06-9,0-5.44-.17-6.71-1.83-4.7-6.86,2.65-6.65,5.58-13.18,8.55-19.7,1.35-3,.86-4.38-2.62-4.3s-7,.2-10.49,0c-3.89-.27-6.16,1.28-7.69,4.85-4.33,10.1-9,20.05-13.34,30.15-4.81,11.21-2.78,14.29,9.44,14.93,5.06.27,5.55,1,3.57,5.74-3,7.06-6.21,14-8.93,21.17-2.17,5.68.45,9.49,6.53,9.95C183.6,250.39,187.11,250.18,190.61,250.18ZM78.16,204.08c.26-9.75.2-9.82-7.85-9.83-2.16,0-4.34.13-6.49,0-3.7-.26-5.4,1.1-5.65,5-.76,12-1.43,24-3,35.83-1,7.93-1.62,15.42,2.88,22.51,2.19,3.46,3.09,10.39,6,10.08,4.52-.48,5.28-6.87,6.9-11.12C77.61,239.07,75.77,220.4,78.16,204.08Zm65.28-9.81c-.83,0-1.66,0-2.5,0-7.75,0-8,.08-7.62,7.77.53,10.28,1.32,20.54,2.26,30.79,1,11.46,3,22.72,9.16,32.81,1.85,3,3.24,3.8,4.79,0,3.76-9.28,9.79-17.46,7-29-2.51-10.51-1.83-21.78-2.7-32.7C153.1,194.26,153,194.27,143.44,194.27Zm34.72,86.92c18.41-.44,13.57,2.92,21.38-13.61.35-.75.7-1.5,1.06-2.25,1.65-3.43.57-4.84-3.23-4.9-8.47-.13-17,.62-25.42-.61-1.76-.26-2.8.75-3.49,2.22-2.22,4.65-4.4,9.32-6.64,14-1.28,2.67-.36,4,2.42,4.57C169,281.61,173.86,281,178.16,281.19Zm192-89.21c10.85,1.22,15.33-5.71,13.91-12.86-.94-4.75-5.6-7.87-10.91-7.31-6.3.66-9.2,6.24-8.9,15.87C364.47,193.58,368.61,191.76,370.18,192Z"/><path d="M322.11,202.88v-2c0-8.56.27-8.83,9-8.66,6.45.12,7.32,1,7.39,7.67,0,1.16,0,2.32,0,3.48,0,10.26,0,10.07-10.44,10.15-4.62,0-6.39-1.73-6-6.17.14-1.48,0-3,0-4.48Z"/></g></g></svg>